<?xml version="1.0" encoding="UTF-8"?>
<svg version="1.1" xmlns="http://www.w3.org/2000/svg" width="500" height="500">
<path d="M0 0 C165 0 330 0 500 0 C500 165 500 330 500 500 C335 500 170 500 0 500 C0 335 0 170 0 0 Z " fill="#FEFEFE" transform="translate(0,0)"/>
<path d="M0 0 C24.75 0 49.5 0 75 0 C75 53.46 75 106.92 75 162 C50.25 162 25.5 162 0 162 C0 108.54 0 55.08 0 0 Z " fill="#024AAC" transform="translate(88,164)"/>
<path d="M0 0 C17.82 0 35.64 0 54 0 C54.75925781 8.01410156 55.51851563 16.02820313 56.30078125 24.28515625 C56.85063201 30.08725875 57.40052188 35.88935753 57.95046711 41.69145107 C58.72147792 49.82591441 59.49233268 57.96039248 60.26285946 66.09490168 C60.82039196 71.98057642 61.37834178 77.86621157 61.93633652 83.7518425 C62.29898674 87.57871968 62.66112139 91.40564542 63.02322388 95.23257446 C64.00681706 105.61753496 64.99226437 116.00211052 66.02490234 126.38232422 C66.09875625 127.12823413 66.17261015 127.87414404 66.24870205 128.64265728 C66.56851989 131.87135668 66.89174866 135.09961233 67.22297668 138.3271637 C67.32881577 139.38894333 67.43465485 140.45072296 67.54370117 141.54467773 C67.63318527 142.4200267 67.72266937 143.29537567 67.81486511 144.19725037 C68.05224033 147.79086433 68 151.39855469 68 155 C58.1 155 48.2 155 38 155 C37.505 142.625 37.505 142.625 37 130 C30.4 130 23.8 130 17 130 C17.01160156 131.46953125 17.02320313 132.9390625 17.03515625 134.453125 C17.0445363 136.3854154 17.05363627 138.31770717 17.0625 140.25 C17.07087891 141.21808594 17.07925781 142.18617188 17.08789062 143.18359375 C17.09272461 144.58544922 17.09272461 144.58544922 17.09765625 146.015625 C17.10551147 147.30388184 17.10551147 147.30388184 17.11352539 148.61816406 C17 151 17 151 16 155 C6.1 155 -3.8 155 -14 155 C-13.25280849 139.85124151 -11.79907964 124.79900926 -10.3125 109.70703125 C-10.04654708 106.98482791 -9.78168699 104.26251859 -9.5168457 101.54020691 C-8.82312222 94.41553408 -8.12544684 87.29125255 -7.42687988 80.16705322 C-6.37512304 69.44034437 -5.32687332 58.713293 -4.28181362 47.98592967 C-3.82926816 43.34234524 -3.373607 38.69907279 -2.91723633 34.05586243 C-2.67780967 31.60471435 -2.43846617 29.15355815 -2.19921875 26.70239258 C-2.09217621 25.61994263 -1.98513367 24.53749268 -1.87484741 23.42224121 C-1.11607129 15.61610177 -0.559302 7.83022807 0 0 Z " fill="#014BAD" transform="translate(185,168)"/>
<path d="M0 0 C8.619288 5.84738834 13.27361299 12.73674274 15.40551758 22.88720703 C17.11032796 31.99930089 17.25011511 40.74574087 17 50 C7.1 50 -2.8 50 -13 50 C-13.4375 40.25 -13.4375 40.25 -13.56811523 37.19628906 C-13.6252771 35.99311035 -13.6252771 35.99311035 -13.68359375 34.765625 C-13.73858032 33.54020996 -13.73858032 33.54020996 -13.79467773 32.29003906 C-13.99134275 30.0965577 -14.40300594 28.11603587 -15 26 C-16.43655854 25.91868537 -17.8744483 25.86066441 -19.3125 25.8125 C-20.11300781 25.77769531 -20.91351563 25.74289063 -21.73828125 25.70703125 C-24.51627459 26.06687495 -25.29427215 26.83241353 -27 29 C-28.59106777 32.18213554 -28.15622976 35.62288403 -28.16113281 39.11816406 C-28.16609772 39.957379 -28.17106262 40.79659393 -28.17617798 41.66123962 C-28.19081871 44.44604301 -28.19760556 47.2307894 -28.203125 50.015625 C-28.20887586 51.94895428 -28.2146336 53.88228355 -28.22039795 55.81561279 C-28.23091405 59.87431098 -28.2367524 63.93298932 -28.24023438 67.99169922 C-28.2457136 73.18813509 -28.26972686 78.38430821 -28.29820633 83.58066177 C-28.31684883 87.57670858 -28.32203922 91.57269238 -28.32357025 95.56877899 C-28.32659479 97.4841022 -28.33461661 99.39942436 -28.34775543 101.3147049 C-28.36484594 103.99809098 -28.36292812 106.6808391 -28.35644531 109.36425781 C-28.3656601 110.15305832 -28.37487488 110.94185883 -28.3843689 111.75456238 C-28.34677622 116.7320576 -27.72697691 121.27302309 -24 125 C-19.83009336 125.42781673 -19.83009336 125.42781673 -16.1875 123.6875 C-13.63454403 120.0596152 -13.81040849 116.43811618 -13.68359375 112.14453125 C-13.66281265 111.48289474 -13.64203156 110.82125824 -13.62062073 110.13957214 C-13.55535273 108.03065148 -13.49634656 105.92160865 -13.4375 103.8125 C-13.39429311 102.38084685 -13.35067812 100.94920596 -13.30664062 99.51757812 C-13.19969494 96.01184846 -13.09836359 92.50598214 -13 89 C-15.64 89 -18.28 89 -21 89 C-21 80.09 -21 71.18 -21 62 C-8.46 62 4.08 62 17 62 C17 92.03 17 122.06 17 153 C12.71 153 8.42 153 4 153 C2.35 149.04 0.7 145.08 -1 141 C-1.94875 142.216875 -2.8975 143.43375 -3.875 144.6875 C-9.17410575 150.59521591 -14.28791632 153.78349944 -22.29296875 154.4765625 C-32.31708414 154.9644154 -40.2244734 154.05779125 -48.01171875 147.23828125 C-60.82883219 133.99124367 -60.46802576 113.033435 -60.3984375 95.7734375 C-60.40046597 93.96896243 -60.40338377 92.16448818 -60.40713501 90.36001587 C-60.41151982 86.60679194 -60.40525138 82.85378441 -60.39111328 79.10058594 C-60.37399885 74.32902036 -60.38390153 69.55796043 -60.40183067 64.78641319 C-60.4127522 61.06969499 -60.40918455 57.35309363 -60.4014473 53.63637161 C-60.39946961 51.87839317 -60.40181725 50.12040354 -60.40888596 48.3624382 C-60.45787898 32.76562155 -59.85628338 17.38516903 -48.8125 5.25 C-36.54132176 -6.3215058 -14.63177348 -7.8582142 0 0 Z " fill="#024BAD" transform="translate(321,170)"/>
<path d="M0 0 C20.46 0 40.92 0 62 0 C62 9.57 62 19.14 62 29 C51.77 29 41.54 29 31 29 C31 39.23 31 49.46 31 60 C40.9 60 50.8 60 61 60 C61 69.57 61 79.14 61 89 C51.1 89 41.2 89 31 89 C31 100.88 31 112.76 31 125 C41.89 125 52.78 125 64 125 C64 134.9 64 144.8 64 155 C42.88 155 21.76 155 0 155 C0 103.85 0 52.7 0 0 Z " fill="#004AAD" transform="translate(351,168)"/>
<path d="M0 0 C0.78199768 -0.00570007 1.56399536 -0.01140015 2.36968994 -0.01727295 C4.02737067 -0.02672748 5.68507022 -0.03325873 7.34277344 -0.03710938 C9.86687559 -0.04678397 12.39015261 -0.07778911 14.9140625 -0.109375 C16.52603684 -0.11590835 18.138017 -0.12115752 19.75 -0.125 C20.50021423 -0.1373468 21.25042847 -0.1496936 22.02337646 -0.16241455 C26.804391 -0.14231435 30.14188414 0.54380466 34.140625 3.203125 C36.140625 7.203125 36.140625 7.203125 36.140625 25.203125 C19.640625 25.203125 3.140625 25.203125 -13.859375 25.203125 C-13.859375 6.203125 -13.859375 6.203125 -9.859375 1.203125 C-6.74193382 -0.35559559 -3.42317818 0.01918485 0 0 Z " fill="#000307" transform="translate(112.859375,189.796875)"/>
<path d="M0 0 C0.92039062 0.0103125 1.84078125 0.020625 2.7890625 0.03125 C5.72086055 0.56269376 7.16358533 1.54814104 9.375 3.5 C12.0655528 2.27992056 12.0655528 2.27992056 14.375 0.5 C29.9852972 -0.51213897 29.9852972 -0.51213897 36.375 3.5 C38.375 6.5 38.375 6.5 38.375 24.5 C21.875 24.5 5.375 24.5 -11.625 24.5 C-11.625 18.23 -11.625 11.96 -11.625 5.5 C-4.82911478 -0.16323768 -4.82911478 -0.16323768 0 0 Z " fill="#000205" transform="translate(110.625,275.5)"/>
<path d="M0 0 C16.5 0 33 0 50 0 C50 3.3 50 6.6 50 10 C44.06 11.32 38.12 12.64 32 14 C37.94 14.33 43.88 14.66 50 15 C50 18.3 50 21.6 50 25 C33.5 25 17 25 0 25 C0 21.37 0 17.74 0 14 C7.425 12.515 7.425 12.515 15 11 C10.05 10.67 5.1 10.34 0 10 C0 6.7 0 3.4 0 0 Z " fill="#000104" transform="translate(99,219)"/>
<path d="M0 0 C0 3.3 0 6.6 0 10 C-2.64 10 -5.28 10 -8 10 C-8 12.31 -8 14.62 -8 17 C-5.36 17 -2.72 17 0 17 C0 19.97 0 22.94 0 26 C-6.65365668 26.08284709 -13.11333559 25.82777922 -19.7265625 25.125 C-21.03710098 24.99182373 -21.03710098 24.99182373 -22.37411499 24.85595703 C-25.12491723 24.57534407 -27.87494166 24.28780242 -30.625 24 C-32.50646307 23.80682998 -34.38797319 23.6141176 -36.26953125 23.421875 C-40.84702471 22.95404307 -45.42339855 22.47681801 -50 22 C-50 16.39 -50 10.78 -50 5 C-41.7362816 3.1069171 -33.47784831 2.27160686 -25.04882812 1.56738281 C-22.74029267 1.37418762 -20.43265774 1.17213678 -18.125 0.96875 C-16.6406694 0.84063039 -15.15629573 0.71300862 -13.671875 0.5859375 C-12.99050476 0.52659027 -12.30913452 0.46724304 -11.6071167 0.40609741 C-7.72661082 0.08506398 -3.89320674 -0.05656538 0 0 Z " fill="#000103" transform="translate(149,247)"/>
<path d="M0 0 C0.66 0 1.32 0 2 0 C2.78809154 8.67560607 3.57081955 17.35167517 4.34690857 26.02836323 C4.70753212 30.05829104 5.06992594 34.08804252 5.43652344 38.11743164 C5.79095948 42.01390093 6.140539 45.91077949 6.48690796 49.80797386 C6.61916093 51.28668622 6.7530945 52.76524936 6.88882446 54.24364662 C7.64727348 62.51795264 8.15146938 70.68496212 8 79 C3.38 79 -1.24 79 -6 79 C-5.43151398 63.39187977 -4.49258067 47.83814139 -3.27050781 32.26782227 C-2.99510057 28.74991731 -2.72769794 25.23146081 -2.4609375 21.71289062 C-2.28692474 19.46090141 -2.11246322 17.20894682 -1.9375 14.95703125 C-1.85830322 13.91239212 -1.77910645 12.86775299 -1.69750977 11.79145813 C-1.58234009 10.34164803 -1.58234009 10.34164803 -1.46484375 8.86254883 C-1.399021 8.01702957 -1.33319824 7.17151031 -1.26538086 6.30036926 C-1.0143495 4.12438407 -0.58534411 2.10808464 0 0 Z " fill="#F0F4FA" transform="translate(211,194)"/>
<path d="M0 0 C10.23 0 20.46 0 31 0 C31.33 1.32 31.66 2.64 32 4 C21.44 4 10.88 4 0 4 C0 2.68 0 1.36 0 0 Z " fill="#0049AC" transform="translate(108,200)"/>
<path d="M0 0 C0 1.32 0 2.64 0 4 C-2.83339965 4.02724423 -5.66653117 4.04695589 -8.5 4.0625 C-9.68722656 4.07506836 -9.68722656 4.07506836 -10.8984375 4.08789062 C-16.02761717 4.10891185 -20.92336106 3.73937287 -26 3 C-26 2.67 -26 2.34 -26 2 C-22.97961911 1.66205529 -19.95880244 1.32951567 -16.9375 1 C-16.08994141 0.90460938 -15.24238281 0.80921875 -14.36914062 0.7109375 C-9.54527411 0.18943842 -4.85163736 -0.10532727 0 0 Z " fill="#0045A2" transform="translate(133,258)"/>
<path d="M0 0 C4.29 0 8.58 0 13 0 C13.33 1.32 13.66 2.64 14 4 C9.38 4 4.76 4 0 4 C0 2.68 0 1.36 0 0 Z " fill="#0049AA" transform="translate(126,286)"/>
<path d="M0 0 C2.97 0 5.94 0 9 0 C9.33 1.32 9.66 2.64 10 4 C6.7 4 3.4 4 0 4 C0 2.68 0 1.36 0 0 Z " fill="#0046A3" transform="translate(107,286)"/>
<path d="M0 0 C0 0.33 0 0.66 0 1 C-7.92 1 -15.84 1 -24 1 C-24 0.67 -24 0.34 -24 0 C-15.52441979 -2.20806699 -8.53881556 -1.76477905 0 0 Z " fill="#004198" transform="translate(149,233)"/>
<path d="M0 0 C0.66 0.99 1.32 1.98 2 3 C-3.28 2.67 -8.56 2.34 -14 2 C-14 1.67 -14 1.34 -14 1 C-9.29100905 0.23118515 -4.7709748 -0.3741941 0 0 Z " fill="#003680" transform="translate(121,259)"/>
</svg>
