<?xml version="1.0" encoding="UTF-8"?>
<svg version="1.1" xmlns="http://www.w3.org/2000/svg" width="180" height="40">
<path d="M0 0 C59.4 0 118.8 0 180 0 C180 13.2 180 26.4 180 40 C120.6 40 61.2 40 0 40 C0 26.8 0 13.6 0 0 Z " fill="#FCFCFC" transform="translate(0,0)"/>
<path d="M0 0 C3.58875 -0.0928125 3.58875 -0.0928125 7.25 -0.1875 C8.37003418 -0.22846802 8.37003418 -0.22846802 9.51269531 -0.27026367 C12.62088764 -0.30913698 14.71986318 -0.15429758 17.4609375 1.35546875 C19 3 19 3 19.375 5.5 C19 8 19 8 17 11 C17.99 11.66 18.98 12.32 20 13 C20.33 13.99 20.66 14.98 21 16 C22.65 10.72 24.3 5.44 26 0 C29.3 0 32.6 0 36 0 C41 14.77272727 41 14.77272727 41 21 C37.7 21 34.4 21 31 21 C31 19.35 31 17.7 31 16 C30.67 16 30.34 16 30 16 C30 17.65 30 19.3 30 21 C26.7 21 23.4 21 20 21 C19.67 20.34 19.34 19.68 19 19 C18.49984375 19.32742187 17.9996875 19.65484375 17.484375 19.9921875 C14.07974535 21.37331085 10.85665149 21.21294813 7.25 21.125 C4.8575 21.08375 2.465 21.0425 0 21 C0 14.07 0 7.14 0 0 Z " fill="#141414" transform="translate(15,8)"/>
<path d="M0 0 C3.45394199 -0.49147001 6.56617883 -0.69494 10 0 C12.6162447 2.33009294 14.32081081 4.9419644 16 8 C16 5.36 16 2.72 16 0 C18.64 0 21.28 0 24 0 C23.67 6.93 23.34 13.86 23 21 C20.36 21 17.72 21 15 21 C12.90625 18.8125 12.90625 18.8125 11.5 16 C11.0153125 15.071875 10.530625 14.14375 10.03125 13.1875 C9.6909375 12.465625 9.350625 11.74375 9 11 C9 14.3 9 17.6 9 21 C6.03 21 3.06 21 0 21 C0 19.68 0 18.36 0 17 C0.66 17 1.32 17 2 17 C2 12.71 2 8.42 2 4 C1.34 4 0.68 4 0 4 C0 2.68 0 1.36 0 0 Z " fill="#060606" transform="translate(57,8)"/>
<path d="M0 0 C2.371875 -0.103125 4.74375 -0.20625 7.1875 -0.3125 C7.92508545 -0.35802002 8.6626709 -0.40354004 9.42260742 -0.45043945 C13.20433723 -0.52959788 14.89037237 -0.0808776 17.94921875 2.17578125 C20.20790719 5.28631791 20.67828721 6.70595086 20.625 10.5 C20.63789062 11.4178125 20.65078125 12.335625 20.6640625 13.28125 C19.71415658 17.1702766 18.20396107 18.63628302 15 21 C12.11628549 21.37353815 10.01710038 21.48712853 7.1875 21.3125 C4.815625 21.209375 2.44375 21.10625 0 21 C0 14.07 0 7.14 0 0 Z " fill="#090909" transform="translate(83,8)"/>
<path d="M0 0 C3.63 0 7.26 0 11 0 C11.84003448 2.7481128 12.67222151 5.49819581 13.5 8.25 C13.73847656 9.02730469 13.97695312 9.80460937 14.22265625 10.60546875 C14.56103516 11.73662109 14.56103516 11.73662109 14.90625 12.890625 C15.11572266 13.58188477 15.32519531 14.27314453 15.54101562 14.98535156 C16 17 16 17 16 21 C12.7 21 9.4 21 6 21 C6.33 18.69 6.66 16.38 7 14 C5.68 14 4.36 14 3 14 C3.33 16.31 3.66 18.62 4 21 C1.03 21 -1.94 21 -5 21 C-4.30130124 16.27826731 -3.19817903 11.72224651 -1.9375 7.125 C-1.75123047 6.43664062 -1.56496094 5.74828125 -1.37304688 5.0390625 C-0.91794189 3.35867486 -0.45933322 1.67923678 0 0 Z " fill="#0C0C0C" transform="translate(109,8)"/>
<path d="M0 0 C5.94 0 11.88 0 18 0 C18 2.64 18 5.28 18 8 C16.02 8 14.04 8 12 8 C12 7.01 12 6.02 12 5 C11.01 5 10.02 5 9 5 C9 6.32 9 7.64 9 9 C9.66 9 10.32 9 11 9 C11 9.99 11 10.98 11 12 C10.34 12 9.68 12 9 12 C9 13.65 9 15.3 9 17 C9.99 17 10.98 17 12 17 C12 15.35 12 13.7 12 12 C13.98 12 15.96 12 18 12 C18 14.97 18 17.94 18 21 C12.06 21 6.12 21 0 21 C0 14.07 0 7.14 0 0 Z " fill="#0A0A0A" transform="translate(147,8)"/>
<path d="M0 0 C0.99 0.33 1.98 0.66 3 1 C3 3.31 3 5.62 3 8 C0.69 8 -1.62 8 -4 8 C-4 7.01 -4 6.02 -4 5 C-5.32 5 -6.64 5 -8 5 C-8 8.63 -8 12.26 -8 16 C-6.68 16 -5.36 16 -4 16 C-4.33 14.02 -4.66 12.04 -5 10 C-2.03 10 0.94 10 4 10 C3.67 13.3 3.34 16.6 3 20 C-1.60964322 21.53654774 -6.18603794 21.53408275 -11 21 C-14.16620095 18.81381363 -14.7896387 17.63108389 -16 14 C-16.61041008 9.34344307 -16.61434263 6.03802721 -14.1875 1.9375 C-9.55475044 -0.87848503 -5.29500827 -0.57376251 0 0 Z " fill="#080808" transform="translate(142,8)"/>
<path d="M0 0 C0.66 0 1.32 0 2 0 C3.07918977 3.5224754 3.16644265 6.82759801 3.1875 10.5 C3.20167969 11.6240625 3.21585937 12.748125 3.23046875 13.90625 C3.00970218 16.86976056 2.5460647 18.5067415 1 21 C0.34 21 -0.32 21 -1 21 C-1.0270203 18.24993392 -1.04684883 15.50013454 -1.0625 12.75 C-1.07087891 11.97269531 -1.07925781 11.19539063 -1.08789062 10.39453125 C-1.09111328 9.64042969 -1.09433594 8.88632812 -1.09765625 8.109375 C-1.10289307 7.41811523 -1.10812988 6.72685547 -1.11352539 6.01464844 C-0.99437971 3.90026102 -0.57618237 2.03358485 0 0 Z " fill="#D3D3D3" transform="translate(81,8)"/>
<path d="M0 0 C0.99 0 1.98 0 3 0 C3 0.99 3 1.98 3 3 C4.98 3 6.96 3 9 3 C9 3.33 9 3.66 9 4 C7.02 4 5.04 4 3 4 C3 6.64 3 9.28 3 12 C2.01 12 1.02 12 0 12 C0 10.35 0 8.7 0 7 C0.66 7 1.32 7 2 7 C2 6.01 2 5.02 2 4 C1.34 4 0.68 4 0 4 C0 2.68 0 1.36 0 0 Z " fill="#E4E4E4" transform="translate(156,13)"/>
<path d="M0 0 C0.99 0 1.98 0 3 0 C3 3.63 3 7.26 3 11 C2.01 11 1.02 11 0 11 C0 7.37 0 3.74 0 0 Z " fill="#F6F6F6" transform="translate(92,13)"/>
<path d="M0 0 C0.33 0 0.66 0 1 0 C1 1.65 1 3.3 1 5 C1.66 5 2.32 5 3 5 C3.33 6.98 3.66 8.96 4 11 C2.68 11 1.36 11 0 11 C0 7.37 0 3.74 0 0 Z " fill="#CCCCCC" transform="translate(134,13)"/>
<path d="M0 0 C1.32 0 2.64 0 4 0 C3.67 2.31 3.34 4.62 3 7 C2.34 7 1.68 7 1 7 C0.67 4.69 0.34 2.38 0 0 Z " fill="#B5B5B5" transform="translate(112,22)"/>
<path d="M0 0 C0.33 0 0.66 0 1 0 C1 1.98 1 3.96 1 6 C1.66 6 2.32 6 3 6 C2.6875 7.9375 2.6875 7.9375 2 10 C1.01 10.33 0.02 10.66 -1 11 C-0.67 7.37 -0.34 3.74 0 0 Z " fill="#D6D6D6" transform="translate(103,15)"/>
</svg>
